<svg width="21" height="20" viewBox="0 0 21 20" fill="none" xmlns="http://www.w3.org/2000/svg">
<path fill-rule="evenodd" clip-rule="evenodd" d="M19.9233 11.1933L20.9193 6.21332C20.9492 6.06693 20.9458 5.91577 20.9093 5.77088C20.8729 5.62599 20.8042 5.49113 20.7086 5.37634C20.6129 5.26156 20.4927 5.16977 20.3568 5.10777C20.2208 5.04577 20.0727 5.01514 19.9233 5.01816H5.97923L4.92347 0.795115C4.86894 0.574126 4.74037 0.378427 4.55915 0.240699C4.37793 0.102971 4.15499 0.0315139 3.92747 0.0381427H1.93546C1.6713 0.0381427 1.41795 0.143032 1.23116 0.329819C1.04437 0.516606 0.939453 0.76999 0.939453 1.03415C0.939453 1.2983 1.04437 1.55169 1.23116 1.73847C1.41795 1.92526 1.6713 2.03015 1.93546 2.03015H3.15058L5.85972 12.8667L5.17247 14.2511C4.53378 13.9585 3.81237 13.9001 3.13499 14.0865C2.45761 14.2729 1.86756 14.692 1.46849 15.2702C1.06942 15.8485 0.886876 16.5488 0.952888 17.2483C1.0189 17.9477 1.32927 18.6015 1.82947 19.0949C2.32966 19.5882 2.98769 19.8895 3.68798 19.9458C4.38827 20.0022 5.08602 19.8101 5.65868 19.4031C6.23133 18.9961 6.64226 18.4003 6.81928 17.7204C6.99629 17.0405 6.92809 16.3199 6.62663 15.6853C6.70328 15.6098 6.76719 15.5223 6.81587 15.4264L7.81187 13.4343C7.9197 13.2221 7.94798 12.9784 7.89157 12.7472L6.45732 7.01017H18.6584L18.0209 10.1774L10.6605 12.0201C10.4042 12.0848 10.1842 12.2486 10.0488 12.4755C9.91336 12.7025 9.87364 12.974 9.93835 13.2302C10.0031 13.4864 10.1669 13.7065 10.3939 13.8419C10.6208 13.9773 10.8923 14.017 11.1485 13.9523L19.1165 11.9603C19.3121 11.9273 19.4933 11.8367 19.6371 11.7001C19.7808 11.5635 19.8804 11.387 19.9233 11.1933ZM3.98722 17.9662C3.79023 17.9662 3.59766 17.9078 3.43387 17.7983C3.27008 17.6889 3.14241 17.5334 3.06703 17.3514C2.99164 17.1694 2.97194 16.9691 3.01037 16.7759C3.0488 16.5827 3.14366 16.4052 3.28296 16.2659C3.42225 16.1266 3.5997 16.0317 3.7929 15.9933C3.98611 15.9549 4.18639 15.9746 4.36838 16.05C4.55038 16.1253 4.70594 16.2531 4.81538 16.4169C4.92482 16.5807 4.98323 16.7732 4.98323 16.9702C4.9806 17.2326 4.8745 17.4835 4.68799 17.6681C4.50149 17.8527 4.24966 17.9563 3.98722 17.9562V17.9662ZM17.9313 13.9822C17.3403 13.9822 16.7626 14.1575 16.2712 14.4858C15.7798 14.8141 15.3969 15.2807 15.1707 15.8267C14.9446 16.3727 14.8854 16.9735 15.0007 17.5531C15.116 18.1327 15.4006 18.6652 15.8184 19.0831C16.2363 19.501 16.7687 19.7855 17.3484 19.9008C17.928 20.0161 18.5287 19.9569 19.0747 19.7307C19.6207 19.5046 20.0874 19.1217 20.4157 18.6303C20.7441 18.1389 20.9193 17.5612 20.9193 16.9702C20.9206 16.577 20.8443 16.1874 20.6947 15.8237C20.5451 15.46 20.3253 15.1294 20.0477 14.8509C19.7701 14.5724 19.4402 14.3515 19.077 14.2007C18.7139 14.0499 18.3245 13.9722 17.9313 13.9722V13.9822ZM17.9313 17.9662C17.7343 17.9662 17.5417 17.9078 17.3779 17.7983C17.2141 17.6889 17.0865 17.5334 17.0111 17.3514C16.9357 17.1694 16.916 16.9691 16.9544 16.7759C16.9929 16.5827 17.0877 16.4052 17.227 16.2659C17.3663 16.1266 17.5438 16.0317 17.737 15.9933C17.9302 15.9549 18.1304 15.9746 18.3124 16.05C18.4944 16.1253 18.65 16.2531 18.7594 16.4169C18.8689 16.5807 18.9273 16.7732 18.9273 16.9702C18.9247 17.2326 18.8186 17.4835 18.6321 17.6681C18.4455 17.8527 18.1937 17.9563 17.9313 17.9562V17.9662Z" fill="black"/>
</svg>
