<svg width="14" height="17" viewBox="0 0 14 17" fill="none" xmlns="http://www.w3.org/2000/svg">
<path fill-rule="evenodd" clip-rule="evenodd" d="M9.13333 2.86C8.7603 2.32228 8.14778 2.00108 7.49333 2H2C0.895431 2 0 2.89543 0 4V14.6667C0 15.7712 0.895431 16.6667 2 16.6667H10C11.1046 16.6667 12 15.7712 12 14.6667V7.6C11.999 7.19218 11.8734 6.79441 11.64 6.46L9.13333 2.86ZM10.6667 14.6667C10.6667 15.0348 10.3682 15.3333 9.99999 15.3333H1.99999C1.6318 15.3333 1.33332 15.0348 1.33332 14.6667V3.99999C1.33332 3.6318 1.6318 3.33332 1.99999 3.33332H7.49332C7.71147 3.33368 7.91564 3.44075 8.03999 3.61999L10.5467 7.21999C10.6245 7.33146 10.6663 7.46405 10.6667 7.59999V14.6667Z" fill="#0E1317"/>
<rect x="9.99707" y="1.59558" width="1" height="5.00436" rx="0.5" transform="rotate(-36.8069 9.99707 1.59558)" fill="#0E1317"/>
</svg>
