<svg width="21" height="20" viewBox="0 0 21 20" fill="none" xmlns="http://www.w3.org/2000/svg">
<path fill-rule="evenodd" clip-rule="evenodd" d="M18.8908 2.22222H15.5575V1.11111C15.5575 0.816425 15.4404 0.533826 15.2321 0.325453C15.0237 0.117079 14.7411 0 14.4464 0C14.1517 0 13.8691 0.117079 13.6607 0.325453C13.4523 0.533826 13.3353 0.816425 13.3353 1.11111V2.22222H6.66861V1.11111C6.66861 0.816425 6.55155 0.533826 6.34318 0.325453C6.1348 0.117079 5.85219 0 5.5575 0C5.26282 0 4.9802 0.117079 4.77183 0.325453C4.56346 0.533826 4.44639 0.816425 4.44639 1.11111V2.22222H1.11306C0.818379 2.22222 0.535762 2.3393 0.327389 2.54767C0.119015 2.75605 0.00195312 3.03865 0.00195312 3.33333V5C0.00195312 5.29468 0.119015 5.57728 0.327389 5.78565C0.535762 5.99403 0.818379 6.11111 1.11306 6.11111C1.40775 6.11111 1.69036 5.99403 1.89874 5.78565C2.10711 5.57728 2.22417 5.29468 2.22417 5V4.44444H4.44639V5.55555C4.44639 5.85023 4.56346 6.13283 4.77183 6.34121C4.9802 6.54958 5.26282 6.66666 5.5575 6.66666C5.85219 6.66666 6.1348 6.54958 6.34318 6.34121C6.55155 6.13283 6.66861 5.85023 6.66861 5.55555V4.44444H13.3353V5.55555C13.3353 5.85023 13.4523 6.13283 13.6607 6.34121C13.8691 6.54958 14.1517 6.66666 14.4464 6.66666C14.7411 6.66666 15.0237 6.54958 15.2321 6.34121C15.4404 6.13283 15.5575 5.85023 15.5575 5.55555V4.44444H17.7797V15.1L15.1019 17.7778H2.22417V9.99999H15.5575C15.8522 9.99999 16.1348 9.88291 16.3432 9.67454C16.5515 9.46616 16.6686 9.18357 16.6686 8.88888C16.6686 8.5942 16.5515 8.3116 16.3432 8.10322C16.1348 7.89485 15.8522 7.77777 15.5575 7.77777H1.11306C0.818379 7.77777 0.535762 7.89485 0.327389 8.10322C0.119015 8.3116 0.00195312 8.5942 0.00195312 8.88888V18.8889C0.00195312 19.1836 0.119015 19.4662 0.327389 19.6745C0.535762 19.8829 0.818379 20 1.11306 20H15.5575C15.7037 20.0008 15.8487 19.9728 15.9841 19.9175C16.1194 19.8622 16.2426 19.7808 16.3464 19.6778L19.6797 16.3445C19.7827 16.2406 19.8642 16.1175 19.9195 15.9821C19.9747 15.8467 20.0028 15.7018 20.0019 15.5555V3.33333C20.0019 3.03865 19.8849 2.75605 19.6765 2.54767C19.4681 2.3393 19.1855 2.22222 18.8908 2.22222Z" fill="white"/>
</svg>
