<svg width="45" height="44" viewBox="0 0 45 44" fill="none" xmlns="http://www.w3.org/2000/svg">
<path d="M19.1752 19.0485C18.1283 19.0485 17.3018 19.9651 17.3018 21.0835C17.3018 22.2018 18.1467 23.1185 19.1752 23.1185C20.2222 23.1185 21.0487 22.2018 21.0487 21.0835C21.0671 19.9651 20.2222 19.0485 19.1752 19.0485ZM25.8793 19.0485C24.8324 19.0485 24.0058 19.9651 24.0058 21.0835C24.0058 22.2018 24.8507 23.1185 25.8793 23.1185C26.9262 23.1185 27.7528 22.2018 27.7528 21.0835C27.7528 19.9651 26.9262 19.0485 25.8793 19.0485Z" fill="black"/>
<path d="M34.8063 3.66663H10.194C8.11851 3.66663 6.42871 5.35329 6.42871 7.44329V32.23C6.42871 34.32 8.11851 36.0066 10.194 36.0066H31.0226L30.0491 32.615L32.4001 34.7966L34.6226 36.85L38.5716 40.3333V7.44329C38.5716 5.35329 36.8818 3.66663 34.8063 3.66663ZM27.7165 27.61C27.7165 27.61 27.0552 26.8216 26.5042 26.125C28.9103 25.4466 29.8287 23.9433 29.8287 23.9433C29.0757 24.4383 28.3593 24.7866 27.7165 25.025C26.7981 25.41 25.9165 25.6666 25.0532 25.8133C23.2899 26.1433 21.6736 26.0516 20.2961 25.795C19.2491 25.5933 18.3491 25.3 17.5961 25.0066C17.1736 24.8416 16.7144 24.64 16.2552 24.3833C16.2001 24.3466 16.145 24.3283 16.0899 24.2916C16.0532 24.2733 16.0348 24.255 16.0165 24.2366C15.6859 24.0533 15.5022 23.925 15.5022 23.925C15.5022 23.925 16.3838 25.3916 18.7165 26.0883C18.1654 26.785 17.4859 27.61 17.4859 27.61C13.4267 27.4816 11.8838 24.8233 11.8838 24.8233C11.8838 18.92 14.5287 14.135 14.5287 14.135C17.1736 12.155 19.6899 12.21 19.6899 12.21L19.8736 12.43C16.5675 13.3833 15.043 14.8316 15.043 14.8316C15.043 14.8316 15.4471 14.6116 16.1267 14.3C18.092 13.4383 19.6532 13.2 20.2961 13.145C20.4063 13.1266 20.4981 13.1083 20.6083 13.1083C21.7287 12.9616 22.9961 12.925 24.3185 13.0716C26.0634 13.2733 27.9369 13.7866 29.8471 14.8316C29.8471 14.8316 28.3961 13.4566 25.2736 12.5033L25.5308 12.21C25.5308 12.21 28.0471 12.155 30.692 14.135C30.692 14.135 33.3369 18.92 33.3369 24.8233C33.3369 24.8233 31.7757 27.4816 27.7165 27.61Z" fill="black"/>
</svg>
