<svg width="40" height="39" viewBox="0 0 40 39" fill="none" xmlns="http://www.w3.org/2000/svg">
<path d="M19.99 38.2553H5.5923C3.73048 38.2869 1.98092 37.3675 0.95083 35.8163C0.33251 34.9302 0.00203641 33.8753 0.00433443 32.7948V21.8737C-0.0484997 21.1304 0.385866 20.4383 1.07824 20.1627C1.72851 19.8303 2.51808 19.9473 3.04404 20.4539C3.43973 20.8107 3.65925 21.3229 3.6447 21.8555V32.6674C3.62879 33.2498 3.89269 33.8047 4.35458 34.1599C4.65517 34.3972 5.02733 34.5255 5.41028 34.524H34.424C34.9548 34.563 35.4761 34.3679 35.8507 33.9898C36.2253 33.6117 36.4156 33.0886 36.3716 32.5582V21.8737C36.3517 21.2965 36.6068 20.7441 37.0592 20.3851C37.5116 20.026 38.1075 19.903 38.6651 20.0535C39.4055 20.2589 39.9372 20.9071 39.9938 21.6735C40.0021 21.7521 40.0021 21.8314 39.9938 21.9101V32.631C39.9938 35.6468 37.549 38.0915 34.5332 38.0915L19.99 38.2553Z" fill="#0E1317"/>
<path d="M18.5882 25.3139V2.0155C18.5666 1.63675 18.6484 1.25926 18.8248 0.92339C19.235 0.19902 20.0844 -0.154726 20.8876 0.064311C21.6907 0.283348 22.2429 1.01934 22.2286 1.85168V25.3139L22.5016 25.0954L26.961 21.4551C27.5696 20.9859 28.4072 20.9495 29.0542 21.3641C29.5815 21.6675 29.9223 22.2143 29.9625 22.8213C30.0027 23.4282 29.737 24.0152 29.2545 24.3856L21.8099 30.3376C21.026 30.9777 19.8999 30.9777 19.116 30.3376L11.5987 24.3674C10.858 23.7416 10.7379 22.645 11.3257 21.8737C11.629 21.4961 12.0704 21.2549 12.5521 21.2037C13.0338 21.1524 13.5161 21.2953 13.8921 21.6007L17.1138 24.1853L18.5882 25.3139Z" fill="#0E1317"/>
</svg>
