<svg width="18" height="23" viewBox="0 0 18 23" fill="none" xmlns="http://www.w3.org/2000/svg">
<path fill-rule="evenodd" clip-rule="evenodd" d="M15.4968 7.14889C13.2468 5.14639 12.3356 3.20013 12.5044 1.23137C12.5246 1.01853 12.4837 0.804335 12.3866 0.613874C12.2895 0.423413 12.14 0.264558 11.9559 0.15595C11.7717 0.0473419 11.5604 -0.00652595 11.3468 0.000630754C11.1331 0.00778746 10.9258 0.0757065 10.7494 0.196394C9.99311 0.725481 9.28191 1.31619 8.6231 1.96258C7.57573 2.85813 6.79692 4.02634 6.3731 5.33759C6.30763 5.6103 6.27369 5.88969 6.27189 6.17014C6.27189 6.46851 6.39036 6.75465 6.60134 6.96562C6.81232 7.1766 7.09852 7.29515 7.39689 7.29515C7.69526 7.29515 7.98139 7.1766 8.19237 6.96562C8.40335 6.75465 8.52189 6.46851 8.52189 6.17014C8.50943 6.06175 8.50943 5.95224 8.52189 5.84385C8.84352 4.94829 9.38968 4.15031 10.1081 3.52635L10.3331 3.3126C10.9196 5.43999 12.1495 7.33401 13.8544 8.73511C14.7393 9.63575 15.3538 10.7665 15.6282 11.9989C15.9026 13.2314 15.8258 14.5161 15.4065 15.707C14.9873 16.898 14.2425 17.9476 13.2566 18.7364C12.2707 19.5252 11.0833 20.0217 9.8294 20.1694C8.57547 20.3172 7.30521 20.1103 6.16299 19.5722C5.02076 19.0342 4.05237 18.1866 3.36779 17.1256C2.6832 16.0647 2.30991 14.8331 2.2903 13.5706C2.2707 12.3082 2.60559 11.0655 3.25689 9.98384C3.82122 11.0707 4.59626 12.0344 5.5369 12.8186C6.47755 13.6028 7.56496 14.1918 8.73564 14.5513C9.02506 14.6259 9.33223 14.5825 9.58962 14.4306C9.84702 14.2787 10.0335 14.0308 10.1081 13.7414C10.1827 13.452 10.1393 13.1448 9.9874 12.8874C9.83549 12.63 9.58756 12.4434 9.29814 12.3688C7.26189 11.7951 5.65308 10.1864 4.46058 7.43014C4.38741 7.26272 4.27458 7.11562 4.13182 7.0016C3.98905 6.88759 3.82066 6.81004 3.64121 6.7757C3.46176 6.74136 3.27662 6.75128 3.10185 6.80454C2.92707 6.85779 2.7679 6.95282 2.63809 7.08139C1.37882 8.33983 0.521118 9.94341 0.173373 11.6894C-0.174373 13.4354 0.00349633 15.2453 0.684512 16.8902C1.36553 18.5351 2.51906 19.941 3.99923 20.9302C5.4794 21.9194 7.21972 22.4474 9 22.4474C10.7803 22.4474 12.5205 21.9194 14.0007 20.9302C15.4809 19.941 16.6345 18.5351 17.3155 16.8902C17.9965 15.2453 18.1744 13.4354 17.8266 11.6894C17.4789 9.94341 16.6211 8.33983 15.3618 7.08139L15.4968 7.14889Z" fill="black"/>
</svg>
