<svg width="45" height="21" viewBox="0 0 45 21" fill="none" xmlns="http://www.w3.org/2000/svg">
<path fill-rule="evenodd" clip-rule="evenodd" d="M42.9544 8.18278H20.4534H20.2489C19.1987 3.0383 14.4237 -0.475354 9.19977 0.0523749C3.97579 0.580104 0 4.97777 0 10.2283C0 15.4789 3.97579 19.8766 9.19977 20.4043C14.4237 20.932 19.1987 17.4184 20.2489 12.2739H20.4534H30.6812V16.365C30.6812 17.4947 31.597 18.4105 32.7267 18.4105C33.8564 18.4105 34.7723 17.4947 34.7723 16.365V12.2739H38.8633V14.3194C38.8633 15.4492 39.7792 16.365 40.9089 16.365C42.0386 16.365 42.9544 15.4492 42.9544 14.3194V12.2739C44.0842 12.2739 45 11.3581 45 10.2283C45 9.0986 44.0842 8.18278 42.9544 8.18278ZM10.2257 16.3649C6.83648 16.3649 4.08901 13.6174 4.08901 10.2282C4.08901 6.83907 6.83648 4.0916 10.2257 4.0916C13.6148 4.0916 16.3623 6.83907 16.3623 10.2282C16.3623 11.8558 15.7158 13.4167 14.5649 14.5675C13.4141 15.7184 11.8532 16.3649 10.2257 16.3649Z" fill="#0E1317"/>
</svg>
