<svg width="40" height="35" viewBox="0 0 40 35" fill="none" xmlns="http://www.w3.org/2000/svg">
<path fill-rule="evenodd" clip-rule="evenodd" d="M10.7912 20.0184L20.0185 29.2456L29.2457 20.0184L34.4867 14.7773C37.0348 12.2293 37.0348 8.09815 34.4867 5.55013C31.9387 3.0021 27.8075 3.0021 25.2595 5.55013L20.0185 10.8281L14.7774 5.58703C12.2294 3.03901 8.0982 3.03901 5.55018 5.58703C3.00215 8.13506 3.00215 12.2662 5.55018 14.8143L10.7912 20.0184ZM22.6021 2.98501C26.5821 -0.995004 33.035 -0.995004 37.015 2.98501C40.995 6.96503 40.995 13.4179 37.015 17.3979L34.3945 20.0185L20.0185 34.4314L5.60554 20.0185L2.98501 17.3979C-0.995004 13.4179 -0.995004 6.96503 2.98501 2.98501C6.96503 -0.995004 13.4179 -0.995004 17.3979 2.98501L20.0185 5.60554L22.6021 2.98501Z" fill="#0E1317"/>
</svg>
