<svg width="12" height="17" viewBox="0 0 12 17" fill="none" xmlns="http://www.w3.org/2000/svg">
<path fill-rule="evenodd" clip-rule="evenodd" d="M5.30222 16.1118C4.91181 15.6163 3.61296 13.9345 2.4042 12.0125C1.78377 11.0671 1.23178 10.0786 0.752476 9.05443C0.314322 8.18175 0.0588499 7.22884 0.00169402 6.25401C-0.0365466 4.62923 0.57397 3.05614 1.69826 1.88254C2.82255 0.708934 4.36801 0.0314956 5.99293 0C9.36538 0.0575732 12.0535 2.83647 11.9992 6.20897C11.942 7.18379 11.6866 8.1367 11.2484 9.00938C10.7759 10.0485 10.2289 11.0522 9.6117 12.0125C8.40294 13.9345 7.10409 15.6163 6.71369 16.1118C6.54444 16.3298 6.28394 16.4573 6.00795 16.4573C5.73196 16.4573 5.47146 16.3298 5.30222 16.1118ZM10.5126 6.20897C10.5671 3.66569 8.55113 1.55899 6.00792 1.50157V1.54662C3.4647 1.60404 1.44872 3.71074 1.50322 6.25402C1.56829 7.01656 1.78257 7.75888 2.13388 8.4388C2.5806 9.40239 3.09492 10.3332 3.67298 11.2242C4.50635 12.5831 5.43732 13.8369 6.00792 14.5877C6.57851 13.8294 7.50948 12.5831 8.34285 11.2617C8.92438 10.3441 9.43876 9.38561 9.88195 8.39375C10.2333 7.71384 10.4475 6.97151 10.5126 6.20897Z" fill="#A4AFCA"/>
<path d="M6.0084 7.55293C6.83769 7.55293 7.50996 6.88066 7.50996 6.05137C7.50996 5.22208 6.83769 4.5498 6.0084 4.5498C5.17911 4.5498 4.50684 5.22208 4.50684 6.05137C4.50684 6.88066 5.17911 7.55293 6.0084 7.55293Z" fill="#A4AFCA"/>
</svg>
