<svg width="12" height="12" viewBox="0 0 12 12" fill="none" xmlns="http://www.w3.org/2000/svg">
<path fill-rule="evenodd" clip-rule="evenodd" d="M3.32835 10.6507H1.33134V1.33134H3.32835C3.5049 1.33134 3.67421 1.2612 3.79904 1.13636C3.92388 1.01152 3.99402 0.842217 3.99402 0.665671C3.99402 0.489124 3.92388 0.319818 3.79904 0.19498C3.67421 0.0701426 3.5049 0 3.32835 0H0.665671C0.489124 0 0.319818 0.0701426 0.19498 0.19498C0.0701426 0.319818 0 0.489124 0 0.665671V11.3164C0 11.4929 0.0701426 11.6623 0.19498 11.7871C0.319818 11.912 0.489124 11.9821 0.665671 11.9821H3.32835C3.5049 11.9821 3.67421 11.912 3.79904 11.7871C3.92388 11.6623 3.99402 11.4929 3.99402 11.3164C3.99402 11.1399 3.92388 10.9705 3.79904 10.8457C3.67421 10.7208 3.5049 10.6507 3.32835 10.6507ZM11.789 5.51839L7.795 1.52437C7.66788 1.40167 7.49723 1.33452 7.32059 1.33764C7.14394 1.34076 6.97579 1.41392 6.85309 1.54103C6.73039 1.66814 6.66319 1.83877 6.66632 2.01542C6.66944 2.19206 6.74261 2.36024 6.86973 2.48294L9.72544 5.33869H3.32835C3.15181 5.33869 2.9825 5.40879 2.85766 5.53363C2.73283 5.65847 2.66268 5.82782 2.66268 6.00436C2.66268 6.18091 2.73283 6.35017 2.85766 6.47501C2.9825 6.59985 3.15181 6.67003 3.32835 6.67003H11.3164C11.4514 6.67367 11.5844 6.63616 11.6976 6.56245C11.8108 6.48873 11.8989 6.38229 11.9502 6.25732C12.0014 6.13235 12.0135 5.99475 11.9847 5.86277C11.9559 5.73079 11.8877 5.61066 11.789 5.51839ZM8.89335 7.8083L6.89634 9.47248C6.76305 9.589 6.68151 9.75373 6.66965 9.93037C6.65779 10.107 6.7166 10.2811 6.83312 10.4144C6.94964 10.5477 7.11433 10.6293 7.29097 10.6411C7.46762 10.653 7.64174 10.5942 7.77503 10.4776L9.77204 8.81347C9.90533 8.69695 9.98689 8.53223 9.99875 8.35558C10.0106 8.17894 9.9518 8.00482 9.83528 7.87152C9.71876 7.73823 9.55407 7.65675 9.37743 7.64489C9.20078 7.63303 9.02664 7.69178 8.89335 7.8083Z" fill="white"/>
</svg>
