<svg width="45" height="63" viewBox="0 0 45 63" fill="none" xmlns="http://www.w3.org/2000/svg">
<path fill-rule="evenodd" clip-rule="evenodd" d="M41.3948 23.9693H28.1227L43.1026 5.99356C44.0617 4.9225 44.2905 3.38299 43.6843 2.07929C43.0781 0.775589 41.7534 -0.0415689 40.3163 0.00163296H22.1907C20.9512 0.0247765 19.8144 0.695496 19.1948 1.76925L0.499959 33.5265C-0.147728 34.6226 -0.167365 35.9795 0.448333 37.0939C1.06403 38.2084 2.22322 38.914 3.49592 38.9492H11.2854L2.50725 56.9249C1.71603 58.4679 2.13896 60.3559 3.51286 61.4138C4.88676 62.4718 6.82007 62.3983 8.1097 61.2391L43.7317 30.2609C44.8825 29.2913 45.3007 27.7036 44.7767 26.293C44.2528 24.8823 42.8996 23.9525 41.3948 23.9693ZM11.4352 50.9331L17.5769 38.3201C18.7454 35.9233 14.3713 32.8675 14.3713 32.8675H7.75018L23.5689 5.90379H35.1932L20.2134 23.8796C19.2584 24.9466 19.0277 26.4787 19.6262 27.7796C20.2246 29.0805 21.538 29.9023 22.9697 29.8715H36.3916L11.4352 50.9331Z" fill="#0E1317"/>
</svg>
