<svg width="20" height="20" viewBox="0 0 20 20" fill="none" xmlns="http://www.w3.org/2000/svg">
<path fill-rule="evenodd" clip-rule="evenodd" d="M19.0325 8.76352L8.76644 19.0296C8.14664 19.6502 7.30578 19.9992 6.42872 20H0V13.5713C0.000772117 12.6942 0.349808 11.8534 0.970373 11.2336L11.2365 0.967462C12.528 -0.322487 14.6204 -0.322487 15.9119 0.967462L19.0325 4.08809C20.3225 5.37965 20.3225 7.47197 19.0325 8.76352ZM2.47026 12.7443C2.26654 12.9496 2.15169 13.2269 2.15047 13.5161L2.20561 17.7946H6.42894C6.71822 17.7934 6.99543 17.6785 7.20082 17.4748L17.4228 7.14256C17.8504 6.71246 17.8504 6.01785 17.4228 5.58776L14.3022 2.46712C13.8721 2.03958 13.1775 2.03958 12.7474 2.46712L2.47026 12.7443Z" fill="#0E1317"/>
</svg>
