<svg width="16" height="21" viewBox="0 0 16 21" fill="none" xmlns="http://www.w3.org/2000/svg">
<path fill-rule="evenodd" clip-rule="evenodd" d="M15.552 9.54103L1.79192 1.07327C1.63176 0.975762 1.44856 0.922593 1.26107 0.919127C1.07359 0.91566 0.888557 0.961981 0.724894 1.0535C0.561231 1.14502 0.42482 1.27841 0.329615 1.43996C0.23441 1.60151 0.183841 1.78543 0.183061 1.97295V14.6746C0.183061 14.9553 0.294594 15.2246 0.493095 15.4231C0.691597 15.6216 0.960808 15.7331 1.24153 15.7331C1.52226 15.7331 1.79147 15.6216 1.98997 15.4231C2.18847 15.2246 2.3 14.9553 2.3 14.6746V3.86765L12.98 10.4407L0.680543 18.0088C0.536832 18.0637 0.406824 18.1493 0.299574 18.2596C0.192325 18.3699 0.110408 18.5023 0.0595386 18.6475C0.00866942 18.7927 -0.0099449 18.9472 0.00501292 19.1003C0.0199707 19.2535 0.0681332 19.4015 0.14614 19.5341C0.224147 19.6667 0.330154 19.7808 0.456723 19.8682C0.583293 19.9557 0.72738 20.0145 0.879007 20.0406C1.03063 20.0667 1.18613 20.0594 1.33466 20.0193C1.48318 19.9791 1.62117 19.9071 1.73901 19.8081L15.4991 11.3404C15.6523 11.2455 15.7787 11.113 15.8663 10.9556C15.954 10.7982 16 10.6209 16 10.4407C16 10.2605 15.954 10.0833 15.8663 9.92581C15.7787 9.76837 15.6523 9.63596 15.4991 9.54103H15.552Z" fill="black"/>
</svg>
