<svg width="35" height="20" viewBox="0 0 35 20" fill="none" xmlns="http://www.w3.org/2000/svg">
<path fill-rule="evenodd" clip-rule="evenodd" d="M19.2165 19.5181C19.2165 19.5181 19.8481 19.4492 20.1717 19.1081C20.4678 18.7955 20.4575 18.2057 20.4575 18.2057C20.4575 18.2057 20.4182 15.4516 21.7209 15.045C23.0048 14.6451 24.6533 17.7083 26.4028 18.8863C27.7244 19.7768 28.7275 19.5819 28.7275 19.5819L33.4026 19.5181C33.4026 19.5181 35.8471 19.3702 34.6882 17.4832C34.5923 17.3286 34.012 16.0868 31.2131 13.536C28.2807 10.866 28.6744 11.2978 32.2043 6.67854C34.3544 3.86564 35.2137 2.14833 34.9449 1.41402C34.6899 0.71163 33.1081 0.898149 33.1081 0.898149L27.8459 0.930076C27.8459 0.930076 27.4556 0.877985 27.1663 1.0477C26.8838 1.21405 26.7007 1.60221 26.7007 1.60221C26.7007 1.60221 25.8687 3.77826 24.7577 5.63001C22.4142 9.53513 21.4778 9.74182 21.0944 9.49985C20.2025 8.93357 20.425 7.22802 20.425 6.01649C20.425 2.23066 21.0105 0.652818 19.2866 0.244494C18.7149 0.108386 18.2938 0.0193274 16.8301 0.00420429C14.9522 -0.0142795 13.3636 0.0109257 12.4632 0.442775C11.8641 0.730114 11.4019 1.37201 11.6843 1.40897C12.0318 1.45434 12.8193 1.61734 13.237 2.17521C13.7762 2.89608 13.7574 4.51258 13.7574 4.51258C13.7574 4.51258 14.0672 8.96886 13.0332 9.52169C12.3245 9.90145 11.3522 9.12681 9.26204 5.58296C8.19213 3.76818 7.38414 1.76185 7.38414 1.76185C7.38414 1.76185 7.22836 1.38713 6.94933 1.18549C6.61209 0.941838 6.14133 0.866222 6.14133 0.866222L1.14101 0.898149C1.14101 0.898149 0.389512 0.918313 0.113904 1.23926C-0.130891 1.52324 0.0950734 2.11304 0.0950734 2.11304C0.0950734 2.11304 4.01008 11.1046 8.44377 15.6365C12.5094 19.7903 17.1246 19.5181 17.1246 19.5181H19.2165Z" fill="black"/>
</svg>
