<svg width="14" height="10" viewBox="0 0 14 10" fill="none" xmlns="http://www.w3.org/2000/svg">
<path d="M12.968 2.16785L12.968 2.16784C13.1224 2.01345 13.2 1.81987 13.2 1.59994C13.2 1.37887 13.1245 1.18385 12.9704 1.02968C12.8162 0.875401 12.6211 0.8 12.4001 0.8C12.1801 0.8 11.9866 0.877571 11.8321 1.03193L11.8321 1.03202L5.20006 7.66857L2.16793 4.63214L2.16787 4.63207C2.01341 4.47755 1.81979 4.40008 1.59993 4.40008C1.3789 4.40008 1.18384 4.47549 1.02961 4.62972C0.8754 4.78393 0.8 4.979 0.8 5.20001C0.8 5.41985 0.87756 5.61349 1.03195 5.76789L1.03195 5.7679L4.63203 9.36796C4.78643 9.52238 4.98012 9.59992 5.20001 9.59992C5.41984 9.59992 5.61351 9.52239 5.76791 9.36796L12.968 2.16785Z" fill="black" stroke="black" stroke-width="0.4"/>
</svg>
