<svg width="22" height="23" viewBox="0 0 22 23" fill="none" xmlns="http://www.w3.org/2000/svg">
<path fill-rule="evenodd" clip-rule="evenodd" d="M21.9845 0.862822C21.8885 0.552686 21.6734 0.293289 21.3863 0.141709C21.0992 -0.00987099 20.7637 -0.0412759 20.4534 0.0543921L0.856161 6.17854C0.613095 6.25526 0.400015 6.40603 0.246624 6.6096C0.0932335 6.81316 0.00716925 7.05947 0.000428558 7.31426C-0.00631213 7.56906 0.066608 7.81965 0.209021 8.03104C0.351435 8.24243 0.556246 8.40403 0.794916 8.49349L8.29088 11.3107C9.3514 11.8034 10.1869 12.6783 10.6303 13.7603L11.0835 15.1076C11.1858 15.4162 11.4066 15.6715 11.6971 15.8174C11.9877 15.9632 12.3243 15.9877 12.6329 15.8854C12.9415 15.7831 13.1968 15.5623 13.3427 15.2718C13.4885 14.9812 13.513 14.6446 13.4107 14.336L12.9575 12.9887C12.6191 12.1096 12.1076 11.3076 11.4532 10.6301C10.7988 9.95256 10.015 9.41346 9.14826 9.04475L4.98384 7.4892L18.9469 3.12873L13.4107 20.4601C13.3624 20.6137 13.3449 20.7753 13.3591 20.9357C13.3733 21.0961 13.419 21.2521 13.4934 21.3949C13.5679 21.5376 13.6698 21.6643 13.7933 21.7676C13.9167 21.871 14.0593 21.949 14.2129 21.9973C14.3665 22.0455 14.5282 22.0631 14.6885 22.0489C14.8489 22.0347 15.0049 21.9889 15.1477 21.9144C15.2904 21.8399 15.4171 21.7381 15.5204 21.6147C15.6238 21.4912 15.7018 21.3486 15.7501 21.195L21.8743 1.59769C21.9862 1.37005 22.0247 1.11329 21.9845 0.862822Z" fill="white"/>
</svg>
