<svg width="22" height="25" viewBox="0 0 22 25" fill="none" xmlns="http://www.w3.org/2000/svg">
<path fill-rule="evenodd" clip-rule="evenodd" d="M15.07 11.7957C17.2863 10.0595 18.1573 7.10865 17.239 4.44727C16.3208 1.78588 13.8154 0 11 0C8.18465 0 5.67924 1.78588 4.76095 4.44727C3.84266 7.10865 4.71368 10.0595 6.93 11.7957C2.74952 13.4606 0.00464366 17.5039 0 22.0037V23.1037C0 23.7112 0.492487 24.2037 1.1 24.2037C1.70751 24.2037 2.2 23.7112 2.2 23.1037V22.0037C2.2 17.1436 6.13989 13.2037 11 13.2037C15.8601 13.2037 19.8 17.1436 19.8 22.0037V23.1037C19.8 23.7112 20.2925 24.2037 20.9 24.2037C21.5075 24.2037 22 23.7112 22 23.1037V22.0037C21.9954 17.5039 19.2505 13.4606 15.07 11.7957ZM6.59996 6.60369C6.59996 4.17363 8.5699 2.20369 11 2.20369C13.43 2.20369 15.4 4.17363 15.4 6.60369C15.4 9.03374 13.43 11.0037 11 11.0037C9.833 11.0037 8.71385 10.5401 7.88869 9.71496C7.06353 8.8898 6.59996 7.77064 6.59996 6.60369Z" fill="black"/>
</svg>
