<svg width="30" height="19" viewBox="0 0 30 19" fill="none" xmlns="http://www.w3.org/2000/svg">
<path fill-rule="evenodd" clip-rule="evenodd" d="M16.3732 17.1901C16.3732 17.1901 16.8785 17.133 17.1373 16.85C17.3743 16.5908 17.366 16.1015 17.366 16.1015C17.366 16.1015 17.3345 13.817 18.3767 13.4797C19.4038 13.148 20.7226 15.6889 22.1222 16.666C23.1795 17.4048 23.982 17.2431 23.982 17.2431L27.7221 17.1901C27.7221 17.1901 29.6777 17.0675 28.7505 15.5022C28.6738 15.3739 28.2096 14.3439 25.9705 12.2281C23.6246 10.0132 23.9395 10.3715 26.7634 6.53981C28.4835 4.20652 29.171 2.78202 28.956 2.17292C28.7519 1.59029 27.4865 1.74501 27.4865 1.74501L23.2767 1.77149C23.2767 1.77149 22.9645 1.72828 22.733 1.86906C22.5071 2.00705 22.3605 2.32903 22.3605 2.32903C22.3605 2.32903 21.695 4.13404 20.8062 5.67005C18.9314 8.90933 18.1822 9.08077 17.8755 8.88006C17.162 8.41033 17.34 6.99559 17.34 5.99063C17.34 2.85032 17.8084 1.54151 16.4293 1.20281C15.9719 1.08991 15.635 1.01603 14.4641 1.00349C12.9618 0.988155 11.6909 1.00906 10.9706 1.36728C10.4912 1.60562 10.1215 2.13807 10.3474 2.16873C10.6254 2.20637 11.2554 2.34157 11.5896 2.80432C12.021 3.40228 12.0059 4.74315 12.0059 4.74315C12.0059 4.74315 12.2538 8.4396 11.4266 8.89818C10.8596 9.21318 10.0818 8.57063 8.40963 5.63102C7.5537 4.12568 6.90731 2.46144 6.90731 2.46144C6.90731 2.46144 6.78269 2.15061 6.55946 1.98335C6.28967 1.78125 5.91307 1.71853 5.91307 1.71853L1.91281 1.74501C1.91281 1.74501 1.31161 1.76173 1.09112 2.02796C0.895287 2.26352 1.07606 2.75275 1.07606 2.75275C1.07606 2.75275 4.20806 10.2112 7.75502 13.9703C11.0075 17.4159 14.6997 17.1901 14.6997 17.1901H16.3732Z" stroke="white" stroke-width="2"/>
</svg>
