<svg width="70" height="70" viewBox="0 0 70 70" fill="none" xmlns="http://www.w3.org/2000/svg">
<path d="M48.6235 25.4687L48.6292 25.4749L48.6351 25.4811C48.9497 25.8104 49.2251 26.4505 49.4232 27.146C49.5156 27.4701 49.5805 27.7672 49.6223 27.9832C49.643 28.0906 49.6578 28.1766 49.6671 28.2341C49.6718 28.2629 49.6751 28.2844 49.6771 28.2979L49.6783 28.3065L49.6803 28.3236L49.6903 28.412C49.6991 28.4901 49.7116 28.6058 49.7268 28.7536C49.7571 29.0494 49.7976 29.4733 49.8382 29.9825C49.9195 31.0033 50 32.3554 50 33.6996V36.2887C50 37.6335 49.9195 38.9855 49.8382 40.0062C49.7976 40.5153 49.7571 40.9391 49.7268 41.2348C49.7116 41.3826 49.6991 41.4982 49.6903 41.5763L49.6803 41.6646L49.6783 41.6817L49.6771 41.6904C49.6751 41.7039 49.6718 41.7254 49.6671 41.7541C49.6578 41.8117 49.643 41.8976 49.6223 42.0051C49.5805 42.221 49.5156 42.5181 49.4232 42.8423C49.2251 43.5378 48.9497 44.1779 48.6351 44.5072L48.6292 44.5133L48.6235 44.5196C47.7585 45.4567 46.857 45.552 46.1646 45.6252C46.0921 45.6328 46.0219 45.6402 45.9543 45.6484C43.6774 45.8179 40.8233 45.9061 38.5245 45.9517C37.3735 45.9745 36.3662 45.9866 35.6468 45.993C35.2871 45.9962 34.9995 45.9979 34.8021 45.9989L34.5759 45.9998L34.5177 46L34.5034 46L34.4852 45.9998L34.4134 45.9991L34.1376 45.9961C33.8985 45.9933 33.5539 45.9892 33.132 45.9833C32.288 45.9717 31.1357 45.9534 29.9014 45.9269C27.4411 45.8742 24.7126 45.7899 23.4213 45.6657C23.2363 45.6317 23.0461 45.6064 22.8529 45.5807C22.027 45.4708 21.146 45.3536 20.3752 44.5193L20.3696 44.5132L20.3639 44.5072C20.0494 44.178 19.7742 43.538 19.5763 42.8426C19.4841 42.5185 19.4193 42.2214 19.3776 42.0055C19.3569 41.898 19.3422 41.8121 19.3329 41.7546C19.3283 41.7258 19.325 41.7043 19.323 41.6908L19.3217 41.682L19.3197 41.6646L19.3097 41.5763C19.3009 41.4982 19.2884 41.3826 19.2732 41.2348C19.2429 40.9391 19.2024 40.5153 19.1618 40.0062C19.0805 38.9855 19 37.6335 19 36.2887V33.6996C19 32.3554 19.0805 31.0033 19.1618 29.9825C19.2024 29.4733 19.2429 29.0494 19.2732 28.7536C19.2884 28.6058 19.3009 28.4901 19.3097 28.412L19.3197 28.3236L19.3217 28.3063L19.323 28.2975C19.325 28.284 19.3283 28.2625 19.3329 28.2337C19.3422 28.1762 19.3569 28.0902 19.3776 27.9828C19.4193 27.7669 19.4841 27.4698 19.5763 27.1456C19.7742 26.4502 20.0494 25.8103 20.3639 25.4811L20.3696 25.4751L20.3752 25.469C21.2426 24.5302 22.1458 24.4359 22.8376 24.3636C22.909 24.3562 22.9782 24.3489 23.0449 24.341C25.3213 24.1716 28.1735 24.086 30.4708 24.043C31.6207 24.0215 32.6271 24.0107 33.3458 24.0054C33.7051 24.0027 33.9923 24.0013 34.1895 24.0007L34.4155 24.0001L34.4736 24L34.4881 24L34.4917 24L34.4926 24H34.4928L34.4928 23V24H34.5072V23L34.5072 24H34.5074L34.5083 24L34.5119 24L34.5264 24L34.5845 24.0001L34.8105 24.0007C35.0077 24.0013 35.2949 24.0027 35.6542 24.0054C36.3729 24.0107 37.3793 24.0215 38.5292 24.043C40.8264 24.086 43.6787 24.1716 45.955 24.341C46.0217 24.3489 46.091 24.3562 46.1625 24.3637C46.854 24.4359 47.7573 24.5304 48.6235 25.4687Z" stroke="white" stroke-width="2"/>
<path fill-rule="evenodd" clip-rule="evenodd" d="M33.8805 38.0633C33.0163 38.494 32.0008 37.8655 32.0007 36.9L32.0002 33.107C32.0001 32.1397 33.0187 31.5111 33.8832 31.9449L37.6762 33.8479C38.6337 34.3283 38.6318 35.6956 37.6731 36.1734L33.8805 38.0633Z" stroke="white" stroke-width="2"/>
</svg>
