<svg width="27" height="29" viewBox="0 0 27 29" fill="none" xmlns="http://www.w3.org/2000/svg">
<path fill-rule="evenodd" clip-rule="evenodd" d="M6.48645 5.24836C6.79508 4.36131 7.70736 3.83461 8.62988 4.01085L16.5932 5.47099C17.4894 5.65829 18.2609 6.22351 18.7097 7.02145L24.5694 17.1707C25.4456 18.6883 24.9256 20.629 23.4079 21.5052L14.248 26.7937C12.7303 27.6699 10.7897 27.1499 9.91345 25.6323L4.0538 15.483C3.61245 14.6882 3.53324 13.7423 3.83625 12.8851L6.48645 5.24836ZM22.3509 19.6728C22.8568 19.3808 23.0301 18.7339 22.7381 18.228L16.8625 8.05129C16.708 7.78352 16.444 7.59679 16.14 7.54023L8.42087 6.12229L5.78927 13.5162C5.68237 13.8182 5.71811 14.1524 5.88646 14.425L11.7461 24.5742C12.0382 25.0801 12.6851 25.2534 13.191 24.9613L22.3509 19.6728Z" fill="#0E1317"/>
<path d="M11.627 12.735C12.3859 12.2969 12.6459 11.3266 12.2078 10.5677C11.7696 9.80888 10.7993 9.54889 10.0405 9.987C9.28166 10.4251 9.02167 11.3954 9.45978 12.1543C9.89789 12.9131 10.8682 13.1731 11.627 12.735Z" fill="#0E1317"/>
</svg>
