<svg width="20" height="22" viewBox="0 0 20 22" fill="none" xmlns="http://www.w3.org/2000/svg">
<path fill-rule="evenodd" clip-rule="evenodd" d="M17 0H2.87C1.28722 0.00548629 0.00548629 1.28722 0 2.87V19C0 20.6569 1.34315 22 3 22H17C18.6569 22 20 20.6569 20 19V3C20 1.34315 18.6569 0 17 0ZM15.9007 2.00001C16.8764 1.95359 17.7517 2.59551 18.0007 3.54001C18.1922 4.23395 17.996 4.97727 17.487 5.4863C16.9779 5.99533 16.2346 6.19153 15.5407 6.00001C14.5962 5.75103 13.9543 4.87568 14.0007 3.90001V2.00001H15.9007ZM12.0005 2.00003V4.00004C12.0033 4.6477 11.6923 5.25662 11.1659 5.63401C10.6395 6.0114 9.96301 6.11053 9.3505 5.90004C8.50372 5.61048 7.95236 4.79365 8.0005 3.90003V2.00003H12.0005ZM5.99972 2.00003V4.00004C6.00249 4.6477 5.69147 5.25662 5.16511 5.63401C4.63875 6.0114 3.96223 6.11053 3.34972 5.90004C2.51035 5.61254 1.96072 4.80642 1.99972 3.92003V3.00003C1.99972 2.44775 2.44743 2.00003 2.99972 2.00003H5.99972ZM7.00056 20.0001V15.0001C6.99975 14.1059 7.39787 13.2579 8.08639 12.6874C8.77492 12.1168 9.68207 11.8831 10.5606 12.0501C12.0135 12.3622 13.0385 13.6644 13.0006 15.1501V20.0001H7.00056ZM17.0006 20H15.0006V15C15.0009 13.4984 14.3263 12.0761 13.1632 11.1263C12.0002 10.1765 10.4718 9.79967 9.00056 10.1C6.62987 10.635 4.95989 12.76 5.00056 15.19V20H3.00056C2.44827 20 2.00056 19.5523 2.00056 19V7.45999C3.14468 8.10919 4.52924 8.176 5.73056 7.63999C6.23544 7.41175 6.68045 7.06944 7.03056 6.64C7.98296 7.70561 9.43154 8.18211 10.8306 7.88999C11.6805 7.71568 12.4459 7.2572 13.0006 6.58999C13.57 7.29185 14.3715 7.76709 15.2606 7.93C16.2007 8.10596 17.1728 7.93922 18.0006 7.45999V19C18.0006 19.5523 17.5528 20 17.0006 20Z" fill="#0E1317"/>
</svg>
