<svg width="45" height="40" viewBox="0 0 45 40" fill="none" xmlns="http://www.w3.org/2000/svg">
<path fill-rule="evenodd" clip-rule="evenodd" d="M38.8636 10.2273H32.7273V6.13636C32.7273 2.74734 29.9799 0 26.5909 0H6.13636C2.74734 0 0 2.74734 0 6.13636V18.4091C0 21.7981 2.74734 24.5455 6.13636 24.5455H9.30682L12.2727 27.8386V28.575C12.2727 31.964 15.0201 34.7114 18.4091 34.7114H25.6705L28.7591 38.2091C29.3415 38.8695 30.1797 39.2479 31.0602 39.2479C31.9408 39.2479 32.7789 38.8695 33.3614 38.2091L36.45 34.7114H38.8636C42.2527 34.7114 45 31.964 45 28.575V16.3023C44.9663 12.9372 42.2288 10.2271 38.8636 10.2273ZM6.13614 20.4546C5.00646 20.4546 4.09068 19.5388 4.09068 18.4091V6.13637C4.09068 5.0067 5.00646 4.09092 6.13614 4.09092H26.5907C27.7204 4.09092 28.6361 5.0067 28.6361 6.13637V18.4091C28.6361 19.5388 27.7204 20.4546 26.5907 20.4546H18.2657L14.7066 24.5455L11.1475 20.4546H6.13614ZM38.864 30.6818C39.9937 30.6818 40.9094 29.766 40.9094 28.6363V16.4045C40.9094 15.2748 39.9937 14.3591 38.864 14.3591H32.7276V18.45C32.7276 21.839 29.9803 24.5863 26.5913 24.5863H20.0867L16.9981 28.0841C16.8117 28.295 16.5985 28.4806 16.364 28.6363C16.364 29.766 17.2798 30.6818 18.4094 30.6818H27.5117L31.0708 34.9363L34.6299 30.6818H38.864Z" fill="#FF6550"/>
</svg>
