<svg width="30" height="30" viewBox="0 0 30 30" fill="none" xmlns="http://www.w3.org/2000/svg">
<path fill-rule="evenodd" clip-rule="evenodd" d="M25.9091 0H4.09091C1.83156 0 0 1.83156 0 4.09091V23.1818C0 25.4412 1.83156 27.2727 4.09091 27.2727H6.81818V28.6364C6.81818 29.3895 7.4287 30 8.18182 30C8.93493 30 9.54545 29.3895 9.54545 28.6364V27.2727H20.4545V28.6364C20.4545 29.3895 21.0651 30 21.8182 30C22.5713 30 23.1818 29.3895 23.1818 28.6364V27.2727H25.9091C28.1684 27.2727 30 25.4412 30 23.1818V4.09091C30 1.83156 28.1684 0 25.9091 0ZM27.2727 23.1818C27.2727 23.9349 26.6622 24.5455 25.9091 24.5455H4.09091C3.33779 24.5455 2.72727 23.9349 2.72727 23.1818V4.09091C2.72727 3.33779 3.33779 2.72727 4.09091 2.72727H25.9091C26.6622 2.72727 27.2727 3.33779 27.2727 4.09091V23.1818Z" fill="#0E1317"/>
<path d="M15.4768 16.3636C16.983 16.3636 18.2041 15.1426 18.2041 13.6363C18.2041 12.1301 16.983 10.9091 15.4768 10.9091C13.9706 10.9091 12.7495 12.1301 12.7495 13.6363C12.7495 15.1426 13.9706 16.3636 15.4768 16.3636Z" fill="#0E1317"/>
<path fill-rule="evenodd" clip-rule="evenodd" d="M22.1448 18.3682C24.1543 15.5337 24.1543 11.7391 22.1448 8.9046L23.6584 7.37733C24.0476 7.04407 24.2171 6.5208 24.0973 6.02266C23.9775 5.52453 23.5885 5.13559 23.0904 5.01577C22.5922 4.89594 22.069 5.06545 21.7357 5.4546L20.2084 6.96824C17.3739 4.95879 13.5793 4.95879 10.7448 6.96824L9.21754 5.4546C8.6765 4.99127 7.87 5.02242 7.36631 5.5261C6.86263 6.02979 6.83148 6.83629 7.29481 7.37733L8.80845 8.9046C6.799 11.7391 6.799 15.5337 8.80845 18.3682L7.29481 19.8955C6.90566 20.2288 6.73615 20.752 6.85598 21.2502C6.9758 21.7483 7.36474 22.1372 7.86287 22.2571C8.36101 22.3769 8.88428 22.2074 9.21754 21.8182L10.7448 20.3046C13.5793 22.314 17.3739 22.314 20.2084 20.3046L21.7357 21.8182C22.069 22.2074 22.5922 22.3769 23.0904 22.2571C23.5885 22.1372 23.9775 21.7483 24.0973 21.2502C24.2171 20.752 24.0476 20.2288 23.6584 19.8955L22.1448 18.3682ZM10.022 13.6364C10.022 10.6239 12.464 8.18182 15.4765 8.18182C18.489 8.18182 20.931 10.6239 20.931 13.6364C20.931 16.6488 18.489 19.0909 15.4765 19.0909C12.464 19.0909 10.022 16.6488 10.022 13.6364Z" fill="#0E1317"/>
</svg>
