<svg width="30" height="33" viewBox="0 0 30 33" fill="none" xmlns="http://www.w3.org/2000/svg">
<path fill-rule="evenodd" clip-rule="evenodd" d="M0 4.5C0 2.01472 2.01472 0 4.5 0H10.5C12.9853 0 15 2.01472 15 4.5V10.5C15 12.9853 12.9853 15 10.5 15H4.5C2.01472 15 0 12.9853 0 10.5V4.5ZM4.5 3C3.67157 3 3 3.67157 3 4.5V10.5C3 11.3284 3.67157 12 4.5 12H10.5C11.3284 12 12 11.3284 12 10.5V4.5C12 3.67157 11.3284 3 10.5 3H4.5Z" fill="#0E1317"/>
<path fill-rule="evenodd" clip-rule="evenodd" d="M18 4.5C18 3.67157 18.6716 3 19.5 3H28.5C29.3284 3 30 3.67157 30 4.5C30 5.32843 29.3284 6 28.5 6H19.5C18.6716 6 18 5.32843 18 4.5Z" fill="#0E1317"/>
<path fill-rule="evenodd" clip-rule="evenodd" d="M18 10.5C18 9.67157 18.6716 9 19.5 9H25.5C26.3284 9 27 9.67157 27 10.5C27 11.3284 26.3284 12 25.5 12H19.5C18.6716 12 18 11.3284 18 10.5Z" fill="#0E1317"/>
<path fill-rule="evenodd" clip-rule="evenodd" d="M0 22.5C0 20.0147 2.01472 18 4.5 18H10.5C12.9853 18 15 20.0147 15 22.5V28.5C15 30.9853 12.9853 33 10.5 33H4.5C2.01472 33 0 30.9853 0 28.5V22.5ZM4.5 21C3.67157 21 3 21.6716 3 22.5V28.5C3 29.3284 3.67157 30 4.5 30H10.5C11.3284 30 12 29.3284 12 28.5V22.5C12 21.6716 11.3284 21 10.5 21H4.5Z" fill="#0E1317"/>
<path fill-rule="evenodd" clip-rule="evenodd" d="M18 22.5C18 21.6716 18.6716 21 19.5 21H28.5C29.3284 21 30 21.6716 30 22.5C30 23.3284 29.3284 24 28.5 24H19.5C18.6716 24 18 23.3284 18 22.5Z" fill="#0E1317"/>
<path fill-rule="evenodd" clip-rule="evenodd" d="M18 28.5C18 27.6716 18.6716 27 19.5 27H25.5C26.3284 27 27 27.6716 27 28.5C27 29.3284 26.3284 30 25.5 30H19.5C18.6716 30 18 29.3284 18 28.5Z" fill="#0E1317"/>
</svg>
