<svg width="30" height="14" viewBox="0 0 30 14" fill="none" xmlns="http://www.w3.org/2000/svg">
<path fill-rule="evenodd" clip-rule="evenodd" d="M28.6363 5.45519H13.6356H13.4992C12.7992 2.02553 9.61583 -0.316903 6.13318 0.0349166C2.65053 0.386736 0 3.31851 0 6.81889C0 10.3193 2.65053 13.251 6.13318 13.6029C9.61583 13.9547 12.7992 11.6122 13.4992 8.18259H13.6356H20.4541V10.91C20.4541 11.6631 21.0647 12.2737 21.8178 12.2737C22.571 12.2737 23.1815 11.6631 23.1815 10.91V8.18259H25.9089V9.54629C25.9089 10.2994 26.5195 10.91 27.2726 10.91C28.0258 10.91 28.6363 10.2994 28.6363 9.54629V8.18259C29.3895 8.18259 30 7.57204 30 6.81889C30 6.06574 29.3895 5.45519 28.6363 5.45519ZM6.81717 10.9099C4.55771 10.9099 2.72607 9.07828 2.72607 6.81883C2.72607 4.55938 4.55771 2.72773 6.81717 2.72773C9.07662 2.72773 10.9083 4.55938 10.9083 6.81883C10.9083 7.90386 10.4772 8.94444 9.71001 9.71167C8.94278 10.4789 7.90219 10.9099 6.81717 10.9099Z" fill="#0E1317"/>
</svg>
