<svg width="25" height="16" viewBox="0 0 25 16" fill="none" xmlns="http://www.w3.org/2000/svg">
<path fill-rule="evenodd" clip-rule="evenodd" d="M21.5909 4.55215H20.4545C20.2101 4.5549 19.9665 4.58154 19.7273 4.6317C18.4294 1.80887 15.6069 0 12.5 0C9.39311 0 6.57057 1.80887 5.27273 4.6317C5.03347 4.58154 4.78989 4.5549 4.54545 4.55215H3.40909C1.5263 4.55215 0 6.07845 0 7.96124V12.5067C0 14.3895 1.5263 15.9158 3.40909 15.9158H4.54545C6.42824 15.9158 7.95455 14.3895 7.95455 12.5067V7.96124C7.94823 7.20143 7.68826 6.46551 7.21591 5.87033C8.07301 3.7017 10.1681 2.27692 12.5 2.27692C14.8319 2.27692 16.927 3.7017 17.7841 5.87033C17.3117 6.46551 17.0518 7.20143 17.0455 7.96124V12.5067C17.0455 14.3895 18.5718 15.9158 20.4545 15.9158H21.5909C23.4737 15.9158 25 14.3895 25 12.5067V7.96124C25 6.07845 23.4737 4.55215 21.5909 4.55215ZM5.68182 12.5067C5.68182 13.1343 5.17305 13.643 4.54545 13.643H3.40909C2.78149 13.643 2.27273 13.1343 2.27273 12.5067V7.9612C2.27273 7.33361 2.78149 6.82484 3.40909 6.82484H4.54545C5.17305 6.82484 5.68182 7.33361 5.68182 7.9612V12.5067ZM21.5909 13.643C22.2185 13.643 22.7273 13.1343 22.7273 12.5067V7.9612C22.7273 7.33361 22.2185 6.82484 21.5909 6.82484H20.4545C19.827 6.82484 19.3182 7.33361 19.3182 7.9612V12.5067C19.3182 13.1343 19.827 13.643 20.4545 13.643H21.5909Z" fill="#0E1317"/>
</svg>
