<svg width="30" height="30" viewBox="0 0 30 30" fill="none" xmlns="http://www.w3.org/2000/svg">
<path fill-rule="evenodd" clip-rule="evenodd" d="M15 2.72727C8.22196 2.72727 2.72727 8.22196 2.72727 15C2.72727 21.778 8.22196 27.2727 15 27.2727C21.778 27.2727 27.2727 21.778 27.2727 15C27.2727 8.22196 21.778 2.72727 15 2.72727ZM0 15C0 6.71573 6.71573 0 15 0C23.2843 0 30 6.71573 30 15C30 23.2843 23.2843 30 15 30C11.0218 30 7.20644 28.4196 4.3934 25.6066C1.58035 22.7936 0 18.9782 0 15Z" fill="#0E1317"/>
<path fill-rule="evenodd" clip-rule="evenodd" d="M15.0002 10.9092C12.7409 10.9092 10.9093 12.7407 10.9093 15.0001C10.9093 17.2594 12.7409 19.091 15.0002 19.091C17.2596 19.091 19.0912 17.2594 19.0912 15.0001C19.0912 12.7407 17.2596 10.9092 15.0002 10.9092ZM8.18188 15C8.18188 11.2344 11.2345 8.18182 15.0001 8.18182C18.7656 8.18182 21.8182 11.2344 21.8182 15C21.8182 18.7656 18.7656 21.8182 15.0001 21.8182C13.1918 21.8182 11.4575 21.0998 10.1789 19.8212C8.90023 18.5425 8.18188 16.8083 8.18188 15Z" fill="#0E1317"/>
</svg>
