<svg width="30" height="30" viewBox="0 0 30 30" fill="none" xmlns="http://www.w3.org/2000/svg">
<path fill-rule="evenodd" clip-rule="evenodd" d="M28.3637 13.6342H16.3658V1.63631C16.3658 1.19763 16.1897 0.777296 15.877 0.469675C15.5642 0.162055 15.1411 -0.0070838 14.7024 0.000227553C6.82458 0.155336 0.410118 6.3802 0.0187891 14.2499C-0.37254 22.1195 5.39273 28.95 13.2163 29.8859C13.3663 29.8859 13.5026 29.8859 13.639 29.8859V29.995H15.0024C23.1695 29.9966 29.8364 23.463 29.9998 15.2976C30.0071 14.8589 29.8379 14.4358 29.5303 14.123C29.2227 13.8103 28.8024 13.6342 28.3637 13.6342ZM13.2564 27.1455C7.12572 26.2847 2.59645 20.9919 2.69349 14.8018C2.79054 8.61171 7.4835 3.46343 13.6382 2.79524V14.725C13.6382 15.1589 13.8105 15.575 14.1174 15.8819C14.4242 16.1887 14.8403 16.3611 15.2743 16.3611H27.2722C26.905 19.6772 25.2032 22.7009 22.559 24.7355C19.9147 26.7702 16.556 27.6403 13.2564 27.1455Z" fill="#0E1317"/>
<path fill-rule="evenodd" clip-rule="evenodd" d="M19.3658 12.2709H27.6416C28.1691 12.2687 28.6631 12.0125 28.9686 11.5826C29.2742 11.1527 29.3537 10.6019 29.1823 10.1031C27.6787 5.74577 24.2548 2.32196 19.8975 0.818324C19.3988 0.64691 18.8479 0.726457 18.418 1.03199C17.9881 1.33752 17.7319 1.83155 17.7297 2.35896V10.6348C17.7297 11.5384 18.4622 12.2709 19.3658 12.2709ZM20.4562 3.995C22.8569 5.19638 24.8038 7.14327 26.0052 9.54403H20.4562V3.995Z" fill="#0E1317"/>
</svg>
