<svg width="25" height="35" viewBox="0 0 25 35" fill="none" xmlns="http://www.w3.org/2000/svg">
<path fill-rule="evenodd" clip-rule="evenodd" d="M4.61255 12.1425L4.14434 11.3465L1.58485 7.11712C0.705272 5.67231 0.673382 3.86541 1.50142 2.39047C2.32946 0.915517 3.88868 0.00187179 5.58016 0.000463264H18.9551C21.2645 -0.0318025 23.2524 1.62479 23.6371 3.90214C23.858 5.12225 23.5705 6.37963 22.8412 7.38243L19.8603 11.565C19.8558 11.5961 19.8558 11.6276 19.8603 11.6587C23.1887 14.0511 25.1126 17.9397 24.9949 22.0371C24.9969 25.3656 23.6112 28.5442 21.1713 30.8081C16.2842 35.4974 8.54947 35.4351 3.73857 30.6676C1.15932 28.2218 -0.201313 24.7573 0.0241759 21.21C0.172899 17.6668 1.84579 14.3609 4.61255 12.1425ZM3.14534 21.8186C3.14534 26.9902 7.33776 31.1826 12.5094 31.1826C17.681 31.1826 21.8734 26.9902 21.8734 21.8186C21.8734 16.647 17.681 12.4546 12.5094 12.4546C7.33776 12.4546 3.14534 16.647 3.14534 21.8186ZM16.8011 10.1448C13.7025 8.9922 10.2732 9.11568 7.26543 10.4881C7.05318 10.1448 6.85092 9.80143 6.64866 9.45808C6.34526 8.94306 6.04187 8.42804 5.70476 7.91302L4.23774 5.49398C3.81847 4.80916 3.98725 3.91797 4.6279 3.43389C4.91079 3.22141 5.25748 3.11135 5.61112 3.12176H18.8768C19.4849 3.09223 20.0546 3.41896 20.3362 3.95868C20.6178 4.4984 20.5598 5.1526 20.1878 5.63444L17.0664 10.0511C17.004 10.1448 16.9416 10.1448 16.8011 10.1448Z" fill="#0E1317"/>
<path d="M11.5897 21.1007C11.3595 21.1855 11.1251 21.2584 10.8874 21.3191C10.2426 21.3899 9.62124 21.0543 9.32672 20.4764C9.03011 19.8869 9.13633 19.1745 9.59203 18.6972C10.3412 17.9481 11.1527 17.1365 11.855 16.4499C12.1641 16.1136 12.5756 15.8887 13.0255 15.81C13.4374 15.7663 13.8498 15.8881 14.1718 16.1487C14.4938 16.4092 14.699 16.787 14.7422 17.199C14.7422 17.3082 14.7422 17.4019 14.7422 17.5111V26.563C14.779 27.1119 14.524 27.6396 14.0712 27.952C13.6074 28.3283 12.9695 28.407 12.4282 28.1546C11.8869 27.9022 11.5371 27.3631 11.5273 26.7659C11.5273 24.9399 11.5273 23.1295 11.5273 21.3191L11.5897 21.1007Z" fill="#0E1317"/>
</svg>
